<?xml version="1.0" encoding="utf-8"?>
<!-- Generator: Adobe Illustrator 19.2.1, SVG Export Plug-In . SVG Version: 6.00 Build 0)  -->
<svg version="1.1"
	 id="svg2" inkscape:version="0.48.5 r10040" sodipodi:docname="icon.svg" xmlns:cc="http://creativecommons.org/ns#" xmlns:dc="http://purl.org/dc/elements/1.1/" xmlns:inkscape="http://www.inkscape.org/namespaces/inkscape" xmlns:osb="http://www.openswatchbook.org/uri/2009/osb" xmlns:rdf="http://www.w3.org/1999/02/22-rdf-syntax-ns#" xmlns:sodipodi="http://sodipodi.sourceforge.net/DTD/sodipodi-0.dtd" xmlns:svg="http://www.w3.org/2000/svg"
	 xmlns="http://www.w3.org/2000/svg" xmlns:xlink="http://www.w3.org/1999/xlink" x="0px" y="0px" viewBox="0 0 256 256"
	 style="enable-background:new 0 0 256 256;" xml:space="preserve">
<style type="text/css">
	.st0{font-family:'MyriadPro-Regular';}
	.st1{font-size:58.5px;}
</style>
<path d="M237.8,80.9c-14.2,3.2-28.4,6.5-42.6,10.2c-1.3-1.3-2.6-2.5-4-3.7c-7.9-6.5-16.6-11.8-25.9-15.9
	c-18.7-8.2-39.3-11.5-59.6-9.1c-6.3,0.7-6.4,10.8,0,10c15.8-1.9,31.6-0.3,46.7,4.7c7.5,2.5,14.8,6,21.5,10.1c3.3,2,6.8,4.3,10.1,6.8
	c-22,6.2-43.7,13.6-64.3,23.8c-5.1-1-10.3-1.8-15.5-2.3c-0.7-1.8-2.3-3-4.5-2.6c0.6-4.3,0.2-9.1,0.3-12.4c0.1-5.7,0.1-11.4,0-17.1
	c12,0.5,24,2.2,35.9,1.8c6.4-0.2,6.4-10.2,0-10c-12,0.5-24-1.1-36-1.6c-0.1-3.6-0.2-7.1-0.3-10.7c-0.2-6.4-10.2-6.4-10,0
	c0.1,3.5,0.2,7,0.3,10.6c-3.4,0.1-6.8,0.3-10.2,0.8C63,76.6,49,85.3,40.3,99.6c-5,8.1-8.1,17.2-10.1,26.5c-4.8,0.7-5.4,7.5-1.7,9.4
	c-0.4,3-0.8,6.1-1,9.1c-0.8,8.4-1.2,17.5-0.1,26.2c-6.5,4-13,8-19.5,12c-5.4,3.4-0.4,12.1,5,8.6c5.5-3.5,11.1-6.9,16.6-10.3
	c1.6,4.9,3.9,9.5,7.2,13.6c9.7,11.9,25.4,16.8,40.3,17.7c0.7,4.2,6.8,6.7,9.1,2c0.3-0.6,0.6-1.3,0.9-1.9
	c14.8-0.7,29.4-4.8,42.6-11.4c0.1,0.3,0.2,0.7,0.3,1c2.1,6.1,11.7,3.5,9.6-2.7c-0.4-1.1-0.8-2.1-1.1-3.2c15-9,27.9-21.3,38.7-35
	c5.8-7.3,11-15,15.8-23c4.6-7.8,10-16.3,10.9-25.6c0.5-4.8-0.5-9.2-2.5-13.1c12.9-3.3,25.9-6.2,38.8-9.2
	C246.7,89.1,244,79.5,237.8,80.9z M91.4,126.9c1.5-0.6,3.1-1.2,4.6-1.9c7.9,0.4,15.7,1.4,23.4,3c-3.4,1.1-6.9,1.9-10.4,2.4
	c-2.1-1.3-4.6-1.9-7.6-1.4c-1.5,0.3-2.6,1.1-3.1,2.1c-0.1,0-0.2,0-0.3,0c-3,0-5.9-0.3-8.8-0.7c-1.4-0.2-2.8-0.4-4.2-0.8
	c-0.1,0-0.1,0-0.2,0c0.7-0.4,1.3-0.7,2.1-0.9C88.4,128.1,90,127.5,91.4,126.9z M45.1,112C51.8,96.8,64,86.6,80.6,84.2
	c3.1-0.5,6.2-0.7,9.3-0.8c0,2.1,0,4.2,0,6.3c0,4.3,0,8.6-0.1,12.9c0,2-0.1,4-0.1,5.9c0,1.3-0.1,2.6-0.1,4c-0.1,0.3-0.2,0.6-0.2,0.7
	c-1,0.3-1.7,0.9-2.3,1.7c-1.4,0-2.8,0-4.3,0.1c-4,0.1-5.5,4.1-4.5,7c-1.3,0.8-2.5,1.9-3.4,3.2c-11.5,0.2-23,0.5-34.6,0.7
	C41.6,121.1,43.1,116.4,45.1,112z M37,151.7c0.3-5.2,0.7-10.5,1.5-15.8c12.3-0.3,24.6-0.5,36.9-0.8c1.5,1.7,3.7,3,6.1,3.8
	c-15,8.5-29.8,17.3-44.6,26.1C36.6,160.6,36.7,156.1,37,151.7z M38.5,175.8c16.8-10.2,33.7-20.1,50.8-29.8c2.2-1.2,2.7-3.3,2.3-5.2
	c0.5,0.1,1,0.1,1.5,0.1c-0.2,2.2,1.1,4.5,3.2,5.4c0,0.5-0.1,1-0.1,1.5c-0.4,1.5-0.4,3.3-0.7,4.9c-0.4,2.7-0.9,5.3-1.4,8
	c-1.1,5.6-2.4,11.1-4,16.6c-2.5,8.8-5.7,17.3-9.4,25.6c-10.8-0.2-21.7-2.7-30.3-8.8C43.9,189.4,40.3,183,38.5,175.8z M95.7,201.8
	c-1.3,0.2-2.6,0.4-3.9,0.5c4.5-10.6,8.1-21.6,10.6-32.8c1.1-5,5.7-20.9,2.6-28.5c0.1,0,0.2,0,0.3,0c0.5,0.9,1,2,1.4,2.9
	c1.2,2.6,2.4,5.1,3.5,7.7c2.5,5.6,5,11.3,7.3,17c3.1,7.6,6,15.3,8.8,23.1C116.8,196.7,106.4,200.2,95.7,201.8z M141.1,182.9
	c-1.9,1.4-3.8,2.6-5.8,3.9c-3.7-10-7.6-20-11.7-29.8c-2.5-5.8-4.9-11.8-7.7-17.6c4.9-1.1,9.7-2.6,14.4-4.6
	c14.9,3.8,29.4,8.9,43.4,15.3C164.5,162.4,153.7,173.9,141.1,182.9z M187.8,127.6c-2.7,4.8-5.5,9.5-8.5,14.1
	c-12.8-5.9-26-10.8-39.6-14.7c-0.1-2.1-1.4-4.2-3.6-4.9c-0.4-0.1-0.8-0.2-1.1-0.3c18.3-8.1,37.4-14.3,56.7-19.5
	c0.1,0.1,0.2,0.2,0.2,0.4C197.1,110.9,192,120.1,187.8,127.6z"/>
<text transform="matrix(1 0 0 1 176.332 228.6484)" class="st0 st1">0.0</text>
</svg>
